<?xml version="1.0" encoding="utf-8"?>
<!-- Generator: Adobe Illustrator 16.0.0, SVG Export Plug-In . SVG Version: 6.00 Build 0)  -->
<!DOCTYPE svg PUBLIC "-//W3C//DTD SVG 1.1//EN" "http://www.w3.org/Graphics/SVG/1.1/DTD/svg11.dtd">
<svg version="1.1" id="Capa_1" xmlns="http://www.w3.org/2000/svg" xmlns:xlink="http://www.w3.org/1999/xlink" x="0px" y="0px"
	 width="529.79px" height="76.459px" viewBox="0 357.77 529.79 76.459" enable-background="new 0 357.77 529.79 76.459"
	 xml:space="preserve">
<g>
	<path fill="#212121" d="M40.312,360.038c-10.018,0-11.271,0-15.235,0.209c-3.965,0.209-6.678,0.835-8.974,1.67
		c-2.504,1.042-4.591,2.295-6.574,4.382c-2.087,2.086-3.34,4.174-4.279,6.574c-0.939,2.399-1.565,5.009-1.669,8.974
		c-0.313,3.861-0.313,5.114-0.313,15.235c0,10.017,0,11.27,0.208,15.234c0.209,3.965,0.835,6.68,1.67,8.975
		c1.043,2.504,2.295,4.487,4.383,6.575c2.087,2.085,4.174,3.338,6.574,4.277c2.4,0.94,5.009,1.564,8.974,1.669
		c3.965,0.21,5.217,0.21,15.235,0.21c10.017,0,11.27,0,15.235-0.21c3.965-0.208,6.678-0.835,8.974-1.669
		c2.504-0.939,4.486-2.192,6.574-4.277c2.087-2.088,3.339-4.175,4.278-6.575c0.939-2.399,1.565-5.01,1.67-8.975
		c0.208-3.965,0.208-5.218,0.208-15.234c0-10.017,0-11.27-0.208-15.235c-0.209-3.965-0.835-6.679-1.67-8.974
		c-0.939-2.504-2.191-4.591-4.278-6.574c-2.087-2.087-4.174-3.34-6.574-4.278c-2.4-0.939-5.009-1.565-8.974-1.669
		C51.582,360.038,50.33,360.038,40.312,360.038 M40.312,366.716c9.913,0,11.061,0,14.921,0.209c3.652,0.209,5.531,0.729,6.887,1.251
		c1.774,0.626,2.922,1.461,4.278,2.818c1.252,1.252,2.087,2.504,2.818,4.277c0.521,1.253,1.148,3.235,1.252,6.888
		c0.208,3.861,0.208,5.113,0.208,14.921c0,9.913,0,11.062-0.208,14.923c-0.209,3.652-0.73,5.529-1.252,6.887
		c-0.626,1.773-1.461,2.922-2.818,4.279c-1.252,1.251-2.504,2.085-4.278,2.815c-1.356,0.522-3.235,1.149-6.887,1.253
		c-3.86,0.208-5.113,0.208-14.921,0.208c-9.914,0-11.061,0-14.922-0.208c-3.652-0.208-5.531-0.73-6.887-1.253
		c-1.773-0.626-2.921-1.461-4.278-2.815c-1.252-1.253-2.087-2.506-2.818-4.279c-0.521-1.357-1.147-3.234-1.252-6.887
		c-0.209-3.861-0.209-5.01-0.209-14.923s0-11.061,0.209-14.921c0.208-3.653,0.73-5.531,1.252-6.888
		c0.626-1.773,1.461-2.921,2.818-4.277c1.252-1.253,2.504-2.087,4.278-2.818c1.356-0.522,3.235-1.147,6.887-1.251
		C29.251,366.716,30.399,366.716,40.312,366.716"/>
	<path fill="#212121" d="M40.312,409.395c-6.783,0-12.313-5.53-12.313-12.312c0-6.783,5.53-12.312,12.313-12.312
		c6.782,0,12.312,5.53,12.312,12.312C52.625,403.864,47.095,409.395,40.312,409.395 M40.312,378.091
		c-10.54,0-18.992,8.556-18.992,18.991c0,10.539,8.557,18.991,18.992,18.991c10.539,0,18.991-8.556,18.991-18.991
		C59.304,386.543,50.747,378.091,40.312,378.091"/>
	<path fill="#212121" d="M64.521,377.256c0,2.504-1.983,4.487-4.487,4.487s-4.487-1.983-4.487-4.487s1.982-4.487,4.487-4.487
		C62.539,372.873,64.521,374.856,64.521,377.256"/>
</g>
<path fill="#212121" d="M149.017,434.229c-0.216,0-0.431,0-0.539,0c-0.107,0-0.215,0-0.431,0c-4.522,0-7.646-2.154-10.23-4.092
	c-1.938-1.4-3.769-2.693-5.815-3.016c-1.076-0.215-2.046-0.215-3.123-0.215c-1.83,0-3.23,0.322-4.308,0.43
	c-0.646,0.107-1.185,0.215-1.615,0.215s-0.969-0.107-1.185-0.861c-0.215-0.646-0.323-1.184-0.431-1.723
	c-0.323-1.4-0.538-2.262-1.077-2.369c-5.707-0.861-9.046-2.154-9.8-3.77c-0.107-0.215-0.107-0.322-0.107-0.537
	c0-0.432,0.323-0.861,0.754-0.971c4.523-0.754,8.615-3.123,11.954-7.107c2.691-3.123,3.984-6.029,4.092-6.354l0,0
	c0.646-1.291,0.754-2.477,0.431-3.445c-0.754-1.724-3.123-2.478-4.738-3.015c-0.431-0.107-0.754-0.217-1.077-0.324
	c-1.399-0.537-3.769-1.723-3.445-3.446c0.215-1.185,1.83-2.046,3.122-2.046c0.323,0,0.646,0.107,0.97,0.216
	c1.399,0.646,2.8,1.076,3.877,1.076c1.399,0,2.046-0.539,2.262-0.646c0-0.754-0.108-1.508-0.108-2.262l0,0
	c-0.323-5.168-0.754-11.737,0.97-15.398c4.738-11.2,15.184-12.062,18.307-12.062c0.108,0,1.4,0,1.4,0c0.107,0,0.107,0,0.215,0
	c3.123,0,13.677,0.862,18.631,11.954c1.615,3.77,1.292,10.23,0.969,15.399v0.216c0,0.754-0.107,1.399-0.107,2.046
	c0.107,0.107,0.754,0.646,2.046,0.646c1.077,0,2.262-0.432,3.662-0.969c0.431-0.216,0.861-0.216,1.185-0.216
	c0.431,0,0.969,0.107,1.399,0.216l0,0c1.185,0.43,1.938,1.184,1.938,2.045c0,0.754-0.538,1.94-3.446,3.124
	c-0.322,0.107-0.646,0.215-1.076,0.324c-1.616,0.537-4.093,1.291-4.738,3.015c-0.432,0.969-0.216,2.045,0.431,3.445l0,0
	c0.215,0.432,5.062,11.631,16.045,13.461c0.432,0.107,0.754,0.539,0.754,0.969c0,0.217,0,0.324-0.107,0.539
	c-0.646,1.615-4.092,2.908-9.8,3.77c-0.538,0.107-0.754,0.969-1.077,2.369c-0.107,0.539-0.215,1.184-0.431,1.723
	c-0.215,0.539-0.538,0.861-1.076,0.861h-0.108c-0.431,0-0.969-0.107-1.615-0.215c-1.185-0.215-2.584-0.432-4.308-0.432
	c-0.969,0-2.046,0.109-3.123,0.217c-2.153,0.322-3.984,1.615-5.815,3.016C156.555,432.075,153.54,434.229,149.017,434.229"/>
<path fill="#FDC505" d="M260.773,413.899c0,0-11.556-1.663-19.172-9.542c-7.616-7.879-11.03-16.02-9.717-20.31
	c0.875-2.977,2.276-5.252,6.04-7.354c0,0,2.452-1.226,3.152,0.438l3.677,8.667c0,0,0.613,1.75-0.351,2.713
	c-0.963,0.963-2.363,2.276-2.363,2.276s-1.226,0.525-0.263,2.276c0,0,3.852,7.179,12.431,11.643c0,0,1.226,0.789,1.926,0.088
	c0.875-0.875,3.239-4.026,3.239-4.026s0.613-1.576,2.625-0.351l6.916,3.677c0,0,1.051,0.438,0.964,1.663
	C269.527,406.983,269.177,412.85,260.773,413.899 M249.83,364.963c-17.158,0-31.078,13.919-31.078,31.078
	c0,6.74,2.101,12.956,5.778,18.033l-4.115,11.73l12.343-3.764c4.903,3.239,10.768,5.077,17.071,5.077
	c17.158,0,31.078-13.919,31.078-31.077S266.988,364.963,249.83,364.963"/>
<path fill="#FDC505" d="M511.494,412.148c13.569-13.043,11.905-28.801,11.905-28.801c4.028-2.889,6.391-6.565,6.391-6.565
	c-2.188,1.313-7.004,1.926-7.004,1.926c4.115-2.626,5.167-7.003,5.167-7.003c-3.415,2.276-8.229,3.064-8.229,3.064
	c-1.664-2.189-10.155-7.003-17.071-1.313c-6.916,5.69-4.639,13.131-4.639,13.131c-16.546-0.875-26.088-13.481-26.088-13.481
	c-5.69,10.155,3.677,16.983,3.677,16.983c-2.715-0.088-5.69-1.576-5.69-1.576c0.088,10.242,9.892,12.606,9.892,12.606
	c-0.787,0.876-5.34,0.525-5.34,0.525c2.626,8.491,11.73,8.667,11.73,8.667c-7.704,6.565-18.646,5.34-18.646,5.34
	C475.69,422.479,497.926,425.192,511.494,412.148"/>
<path fill="#FDC505" d="M321.439,398.667h-9.63v-10.942h9.542v-8.842c0,0-0.438-5.778,4.027-10.155
	c4.377-4.377,10.329-3.939,18.733-3.239v9.893h-6.216c0,0-2.626-0.088-3.852,1.4c-1.226,1.4-1.139,3.414-1.139,3.939v7.003h10.769
	l-1.4,11.029h-9.455v28.364h-11.468v-28.451H321.439z"/>
<path fill="#FDC505" d="M413.983,403.657l-7.878-8.404l-15.32,8.404l16.895-18.034l8.055,8.404l15.146-8.404L413.983,403.657z
	 M410.919,364.963c-17.069,0-30.901,12.869-30.901,28.802c0,9.016,4.465,17.159,11.468,22.411v10.942l10.505-5.777
	c2.802,0.788,5.777,1.226,8.842,1.226c17.071,0,30.903-12.869,30.903-28.801C441.822,377.832,427.99,364.963,410.919,364.963"/>
<g>
	<linearGradient id="SVGID_1_" gradientUnits="userSpaceOnUse" x1="36.9917" y1="309.0586" x2="36.9917" y2="474.1325">
		<stop  offset="0.3109" style="stop-color:#00C5E6"/>
		<stop  offset="1" style="stop-color:#009DBF"/>
	</linearGradient>
	<path fill="url(#SVGID_1_)" d="M37.044,357.77c-10.018,0-11.271,0-15.235,0.209c-3.965,0.209-6.678,0.835-8.974,1.67
		c-2.504,1.042-4.591,2.295-6.574,4.382c-2.087,2.086-3.34,4.174-4.279,6.574c-0.939,2.399-1.565,5.009-1.669,8.974
		C0,383.44,0,384.693,0,394.815c0,10.016,0,11.269,0.208,15.234c0.209,3.965,0.835,6.68,1.67,8.975
		c1.043,2.504,2.295,4.487,4.383,6.575c2.087,2.085,4.174,3.338,6.574,4.277c2.4,0.94,5.009,1.564,8.974,1.669
		c3.965,0.21,5.217,0.21,15.235,0.21c10.017,0,11.27,0,15.235-0.21c3.965-0.208,6.678-0.835,8.974-1.669
		c2.504-0.939,4.486-2.192,6.574-4.277c2.087-2.088,3.339-4.175,4.278-6.575c0.939-2.399,1.565-5.01,1.67-8.975
		c0.208-3.965,0.208-5.218,0.208-15.234c0-10.018,0-11.271-0.208-15.235c-0.209-3.965-0.835-6.679-1.67-8.974
		c-0.939-2.504-2.191-4.591-4.278-6.574c-2.087-2.087-4.174-3.34-6.574-4.278c-2.4-0.939-5.009-1.565-8.974-1.669
		C48.314,357.77,47.062,357.77,37.044,357.77 M37.044,364.449c9.913,0,11.061,0,14.921,0.209c3.652,0.209,5.531,0.729,6.887,1.251
		c1.774,0.626,2.922,1.461,4.278,2.818c1.252,1.252,2.087,2.504,2.818,4.277c0.521,1.253,1.148,3.235,1.252,6.888
		c0.208,3.861,0.208,5.113,0.208,14.922c0,9.913,0,11.061-0.208,14.922c-0.209,3.652-0.73,5.529-1.252,6.887
		c-0.626,1.773-1.461,2.922-2.818,4.279c-1.252,1.251-2.504,2.085-4.278,2.815c-1.356,0.522-3.235,1.149-6.887,1.253
		c-3.86,0.208-5.113,0.208-14.921,0.208c-9.914,0-11.061,0-14.922-0.208c-3.652-0.208-5.531-0.73-6.887-1.253
		c-1.773-0.626-2.921-1.461-4.278-2.815c-1.252-1.253-2.087-2.506-2.818-4.279c-0.521-1.357-1.147-3.234-1.252-6.887
		c-0.209-3.861-0.209-5.01-0.209-14.922c0-9.914,0-11.061,0.209-14.922c0.208-3.653,0.73-5.531,1.252-6.888
		c0.626-1.773,1.461-2.921,2.818-4.277c1.252-1.253,2.504-2.087,4.278-2.818c1.356-0.522,3.235-1.147,6.887-1.251
		C25.983,364.449,27.131,364.449,37.044,364.449"/>
	<linearGradient id="SVGID_2_" gradientUnits="userSpaceOnUse" x1="37.0444" y1="309.0615" x2="37.0444" y2="474.129">
		<stop  offset="0.3109" style="stop-color:#00C5E6"/>
		<stop  offset="1" style="stop-color:#009DBF"/>
	</linearGradient>
	<path fill="url(#SVGID_2_)" d="M37.044,407.127c-6.783,0-12.313-5.53-12.313-12.312c0-6.783,5.53-12.313,12.313-12.313
		c6.782,0,12.312,5.53,12.312,12.313C49.357,401.597,43.827,407.127,37.044,407.127 M37.044,375.823
		c-10.54,0-18.992,8.556-18.992,18.992c0,10.539,8.557,18.991,18.992,18.991c10.539,0,18.991-8.556,18.991-18.991
		C56.036,384.275,47.479,375.823,37.044,375.823"/>
	<linearGradient id="SVGID_3_" gradientUnits="userSpaceOnUse" x1="56.7661" y1="309.0552" x2="56.7661" y2="474.1384">
		<stop  offset="0.3109" style="stop-color:#00C5E6"/>
		<stop  offset="1" style="stop-color:#009DBF"/>
	</linearGradient>
	<path fill="url(#SVGID_3_)" d="M61.253,374.988c0,2.504-1.983,4.487-4.487,4.487s-4.487-1.983-4.487-4.487s1.982-4.487,4.487-4.487
		C59.271,370.605,61.253,372.589,61.253,374.988"/>
</g>
<linearGradient id="SVGID_4_" gradientUnits="userSpaceOnUse" x1="145.6934" y1="357.3325" x2="145.6934" y2="445.5001">
	<stop  offset="0.3109" style="stop-color:#00C5E6"/>
	<stop  offset="1" style="stop-color:#009DBF"/>
</linearGradient>
<path fill="url(#SVGID_4_)" d="M146.017,431.861c-0.216,0-0.431,0-0.539,0c-0.107,0-0.215,0-0.431,0
	c-4.522,0-7.646-2.154-10.23-4.092c-1.938-1.4-3.769-2.693-5.815-3.016c-1.076-0.215-2.046-0.215-3.123-0.215
	c-1.83,0-3.23,0.322-4.308,0.43c-0.646,0.107-1.185,0.215-1.615,0.215s-0.969-0.107-1.185-0.861
	c-0.215-0.646-0.323-1.184-0.431-1.723c-0.323-1.4-0.538-2.262-1.077-2.369c-5.707-0.861-9.046-2.154-9.8-3.77
	c-0.107-0.215-0.107-0.322-0.107-0.537c0-0.432,0.323-0.861,0.754-0.971c4.523-0.754,8.615-3.123,11.954-7.107
	c2.691-3.123,3.984-6.029,4.092-6.354l0,0c0.646-1.291,0.754-2.477,0.431-3.445c-0.754-1.723-3.123-2.477-4.738-3.015
	c-0.431-0.107-0.754-0.216-1.077-0.324c-1.399-0.537-3.769-1.723-3.445-3.445c0.215-1.185,1.83-2.046,3.122-2.046
	c0.323,0,0.646,0.107,0.97,0.216c1.399,0.646,2.8,1.076,3.877,1.076c1.399,0,2.046-0.539,2.262-0.646
	c0-0.754-0.108-1.508-0.108-2.262l0,0c-0.323-5.168-0.754-11.737,0.97-15.398c4.738-11.2,15.184-12.062,18.307-12.062
	c0.108,0,1.4,0,1.4,0c0.107,0,0.107,0,0.215,0c3.123,0,13.677,0.862,18.631,11.954c1.615,3.77,1.292,10.23,0.969,15.399v0.216
	c0,0.754-0.107,1.399-0.107,2.046c0.107,0.107,0.754,0.646,2.046,0.646c1.077,0,2.262-0.432,3.662-0.969
	c0.431-0.216,0.861-0.216,1.185-0.216c0.431,0,0.969,0.107,1.399,0.216l0,0c1.185,0.43,1.938,1.184,1.938,2.045
	c0,0.754-0.538,1.939-3.446,3.123c-0.322,0.107-0.646,0.216-1.076,0.324c-1.616,0.537-4.093,1.292-4.738,3.015
	c-0.432,0.969-0.216,2.045,0.431,3.445l0,0c0.215,0.432,5.062,11.631,16.045,13.461c0.432,0.107,0.754,0.539,0.754,0.969
	c0,0.217,0,0.324-0.107,0.539c-0.646,1.615-4.092,2.908-9.8,3.77c-0.538,0.107-0.754,0.969-1.077,2.369
	c-0.107,0.539-0.215,1.184-0.431,1.723c-0.215,0.539-0.538,0.861-1.076,0.861h-0.108c-0.431,0-0.969-0.107-1.615-0.215
	c-1.185-0.215-2.584-0.432-4.308-0.432c-0.969,0-2.046,0.109-3.123,0.217c-2.153,0.322-3.984,1.615-5.815,3.016
	C153.555,429.707,150.54,431.861,146.017,431.861"/>
</svg>
